<svg width="73" height="16" viewBox="0 0 73 16" fill="none" xmlns="http://www.w3.org/2000/svg">
<path d="M6.82395 2.92705C7.12331 2.00574 8.42671 2.00574 8.72607 2.92705L9.29609 4.68142C9.42997 5.09344 9.81392 5.3724 10.2472 5.3724H12.0918C13.0605 5.3724 13.4633 6.61202 12.6796 7.18142L11.1872 8.26567C10.8367 8.52032 10.6901 8.97169 10.824 9.38371L11.394 11.1381C11.6933 12.0594 10.6389 12.8255 9.85515 12.2561L8.36279 11.1718C8.01231 10.9172 7.53771 10.9172 7.18722 11.1718L5.69487 12.2561C4.91116 12.8255 3.85668 12.0594 4.15603 11.1381L4.72606 9.38371C4.85993 8.97169 4.71327 8.52032 4.36279 8.26567L2.87043 7.18142C2.08672 6.61201 2.4895 5.3724 3.45822 5.3724H5.30287C5.7361 5.3724 6.12005 5.09344 6.25393 4.68142L6.82395 2.92705Z" fill="#FFCA05"/>
<path d="M20.9604 2.92705C21.2597 2.00574 22.5631 2.00574 22.8625 2.92705L23.4325 4.68142C23.5664 5.09344 23.9503 5.3724 24.3836 5.3724H26.2282C27.1969 5.3724 27.5997 6.61202 26.816 7.18142L25.3236 8.26567C24.9732 8.52032 24.8265 8.97169 24.9604 9.38371L25.5304 11.1381C25.8298 12.0594 24.7753 12.8255 23.9916 12.2561L22.4992 11.1718C22.1487 10.9172 21.6741 10.9172 21.3236 11.1718L19.8313 12.2561C19.0476 12.8255 17.9931 12.0594 18.2924 11.1381L18.8625 9.38371C18.9963 8.97169 18.8497 8.52032 18.4992 8.26567L17.0068 7.18142C16.2231 6.61201 16.6259 5.3724 17.5946 5.3724H19.4393C19.8725 5.3724 20.2565 5.09344 20.3903 4.68142L20.9604 2.92705Z" fill="#FFCA05"/>
<path d="M35.0967 2.92705C35.3961 2.00574 36.6995 2.00574 36.9988 2.92705L37.5689 4.68142C37.7027 5.09344 38.0867 5.3724 38.5199 5.3724H40.3646C41.3333 5.3724 41.7361 6.61202 40.9524 7.18142L39.46 8.26567C39.1095 8.52032 38.9629 8.97169 39.0967 9.38371L39.6668 11.1381C39.9661 12.0594 38.9116 12.8255 38.1279 12.2561L36.6356 11.1718C36.2851 10.9172 35.8105 10.9172 35.46 11.1718L33.9676 12.2561C33.1839 12.8255 32.1294 12.0594 32.4288 11.1381L32.9988 9.38371C33.1327 8.97169 32.986 8.52032 32.6356 8.26567L31.1432 7.18142C30.3595 6.61201 30.7623 5.3724 31.731 5.3724H33.5756C34.0089 5.3724 34.3928 5.09344 34.5267 4.68142L35.0967 2.92705Z" fill="#FFCA05"/>
<path d="M49.2331 2.92705C49.5324 2.00574 50.8358 2.00574 51.1352 2.92705L51.7052 4.68142C51.8391 5.09344 52.223 5.3724 52.6563 5.3724H54.5009C55.4696 5.3724 55.8724 6.61202 55.0887 7.18142L53.5964 8.26567C53.2459 8.52032 53.0992 8.97169 53.2331 9.38371L53.8031 11.1381C54.1025 12.0594 53.048 12.8255 52.2643 12.2561L50.7719 11.1718C50.4214 10.9172 49.9468 10.9172 49.5963 11.1718L48.104 12.2561C47.3203 12.8255 46.2658 12.0594 46.5651 11.1381L47.1352 9.38371C47.2691 8.97169 47.1224 8.52032 46.7719 8.26567L45.2796 7.18142C44.4958 6.61201 44.8986 5.3724 45.8673 5.3724H47.712C48.1452 5.3724 48.5292 5.09344 48.663 4.68142L49.2331 2.92705Z" fill="#FFCA05"/>
<path d="M63.3695 2.92705C63.6688 2.00574 64.9722 2.00574 65.2716 2.92705L65.8416 4.68142C65.9755 5.09344 66.3595 5.3724 66.7927 5.3724H68.6373C69.6061 5.3724 70.0088 6.61202 69.2251 7.18142L67.7328 8.26567C67.3823 8.52032 67.2356 8.97169 67.3695 9.38371L67.9395 11.1381C68.2389 12.0594 67.1844 12.8255 66.4007 12.2561L64.9083 11.1718C64.5578 10.9172 64.0832 10.9172 63.7328 11.1718L62.2404 12.2561C61.4567 12.8255 60.4022 12.0594 60.7016 11.1381L61.2716 9.38371C61.4055 8.97169 61.2588 8.52032 60.9083 8.26567L59.416 7.18142C58.6323 6.61201 59.035 5.3724 60.0038 5.3724H61.8484C62.2816 5.3724 62.6656 5.09344 62.7995 4.68142L63.3695 2.92705Z" fill="#FFCA05"/>
</svg>
